<?xml version="1.0" encoding="UTF-8"?>
<!DOCTYPE svg PUBLIC "-//W3C//DTD SVG 1.1//EN" "http://www.w3.org/Graphics/SVG/1.1/DTD/svg11.dtd">
<svg version="1.1" xmlns="http://www.w3.org/2000/svg" xmlns:xlink="http://www.w3.org/1999/xlink" x="0" y="0" width="400" height="300" viewBox="0, 0, 400, 300" baseline-shift="11.5">
  <defs>
    <linearGradient id="Gradient_1" gradientUnits="userSpaceOnUse" x1="97.453" y1="41.962" x2="302.547" y2="258.038">
      <stop offset="0.419" stop-color="#ED3524"/>
      <stop offset="0.788" stop-color="#F27420"/>
    </linearGradient>
  </defs>
  <g id="Layer_1">
    <path d="M378.784,148.994 C378.738,136.541 376.975,124.101 373.443,112.159 C371.326,105.001 368.595,98.021 365.288,91.33 C349.544,59.484 320.375,34.714 286.506,24.076 C248.168,12.034 205.152,18.449 172.079,41.26 C159.729,49.779 148.85,60.404 140.038,72.547 C143.425,72.967 146.788,73.48 150.102,74.084 C158.339,75.584 166.456,77.68 174.398,80.308 C174.796,80.44 180.834,74.249 181.736,73.484 C184.651,71.012 187.706,68.708 190.881,66.58 C197.073,62.431 203.716,58.957 210.645,56.212 C246.639,41.957 286.907,49.751 315.505,75.674 C323.223,82.671 329.904,90.82 335.151,99.823 C342.522,112.468 347.457,126.702 348.785,141.313 C350.857,164.084 339.544,186.822 319.623,198.362 C311.423,203.112 301.349,205.233 292.301,202.42 C285.363,200.264 279.528,195.409 274.908,189.802 C270.288,184.195 266.736,177.806 263.002,171.574 C242.558,137.46 212.744,111.015 175.076,97.488 C165.253,93.96 155.098,91.356 144.784,89.752 C107.961,84.025 69.378,91.136 37.071,109.726 C33.849,111.58 30.512,113.446 27.499,115.625 C25.017,117.421 22.766,119.719 21.742,122.605 C20.762,125.365 21.091,128.527 23.241,130.644 C25.563,132.929 29.216,132.713 32.262,132.904 C36.631,133.179 40.977,133.822 45.241,134.819 C63.141,139.002 80.384,148.822 94.259,160.748 C107.728,172.324 118.609,186.731 126.149,202.804 L126.457,203.461 C142.014,238.49 172.571,264.975 209.164,276.108 C224.604,280.805 240.901,282.752 257.004,281.537 C297.521,278.481 336.06,255.52 358.037,221.345 C371.811,199.927 378.879,174.433 378.784,148.994" fill="url(#Gradient_1)"/>
    <path d="M180.487,115.889 C169.624,111.044 158.194,107.509 146.488,105.376 C140.943,104.366 135.228,103.66 129.502,103.279 C126.031,103.049 122.625,102.932 119.378,102.932 C94.907,102.932 70.803,108.902 49.325,120.241 C68.148,124.767 87.58,135.061 104.119,149.276 C109.669,154.047 114.863,159.293 119.631,164.925 L121.754,155.498 L124.902,141.522 L139.028,143.906 L154.374,146.495 L152.675,136.035 L150.296,121.386 L164.897,118.727 z" fill="#FFFFFE"/>
  </g>
</svg>
